<svg width="25" height="25" viewBox="0 0 25 25" fill="none" xmlns="http://www.w3.org/2000/svg">
<path d="M2.42041 22.4839C5.12006 21.0646 7.72297 19.4786 10.3384 17.9128C12.1893 16.8077 13.9611 15.5753 15.641 14.2243C16.4706 13.5522 17.3176 12.9003 18.0272 12.094C18.8209 11.1925 18.8523 10.5734 18.1472 9.59862C17.5952 8.83755 16.8621 8.26208 16.1385 7.67568C15.332 7.02063 14.4743 6.41864 13.835 5.58268C13.0989 4.62354 13.0989 3.89679 13.9083 3.01406C15.0778 1.73833 16.5597 0.92581 18.1377 0.261397C18.5903 0.0696016 18.7165 0.283262 18.7462 0.699649C18.8226 1.79134 19.337 2.67408 20.0342 3.47571C20.6502 4.1822 21.3973 4.73898 22.1304 5.31288C22.8635 5.88682 23.5434 6.43737 24.0409 7.21247C24.7942 8.38683 24.7254 9.45827 23.8318 10.5157C23.1828 11.2574 22.4501 11.9215 21.6485 12.4948C17.2565 15.7496 12.4563 18.3307 7.69178 20.9633C5.61599 22.1096 2.99588 23.5475 0.887329 24.6704V23.3416C1.13531 23.1951 1.81062 22.8052 2.42041 22.4839Z" fill="black"/>
</svg>
