<?xml version="1.0" encoding="utf-8"?>
<!-- Generator: Adobe Illustrator 24.0.0, SVG Export Plug-In . SVG Version: 6.00 Build 0)  -->
<svg version="1.1" id="Layer_1" xmlns="http://www.w3.org/2000/svg" xmlns:xlink="http://www.w3.org/1999/xlink" x="0px" y="0px"
	 viewBox="0 0 512 515.6" style="enable-background:new 0 0 512 515.6;" xml:space="preserve">
<style type="text/css">
	.st0{fill:#FFFFFF;}
</style>
<g>
	<g>
		<g>
			<g>
				<path class="st0" d="M495.6,310.8l-92.8-144.7c-0.2-0.3-0.5-0.7-0.7-1.1l-2.1-2.7c-7.8-9.4-16.5-20.1-33.7-20.1h-56.9v-12.3
					c-0.2-15.3-8.9-29-22.4-36.1c-14-7.1-30.1-6.5-43,1.4c-12.3,7.6-20,20.9-20,35.3v11.7H26.9C10,142.2,0,157.7,0,172.7v252.4
					c0,15.6,11.1,26.5,26.9,26.5h47.8c0,35.3,28.7,64,64,64s64-28.7,64-64h128c0,35.3,28.7,64,64,64s64-28.7,64-64h22.7
					c17.2,0,30.6-11.6,30.6-26.6v-72.1C512,332.8,496.7,312.4,495.6,310.8z M402.9,206.2l61.8,96H341.3v-96H402.9L402.9,206.2z
					 M245.3,130.5c0.1-7,3.8-13.5,9.8-17.1c6.6-4.1,14.7-4.3,22.2-0.5c6.3,3.3,10.3,9.8,10.7,17v12.3h-42.7L245.3,130.5L245.3,130.5
					z M138.7,494.2c-23.6,0-42.7-19.1-42.7-42.7s19.1-42.7,42.7-42.7s42.7,19.1,42.7,42.7C181.3,475.1,162.2,494.2,138.7,494.2z
					 M394.7,494.2c-23.6,0-42.7-19.1-42.7-42.7s19.1-42.7,42.7-42.7s42.7,19.1,42.7,42.7C437.3,475.1,418.2,494.2,394.7,494.2z
					 M490.7,425.1c0,3.1-4.9,5.1-9.3,5.1h-26.5c-11.7-33.3-48.2-50.8-81.5-39c-18.2,6.4-32.6,20.8-39,39H198.9
					c-11.7-33.3-48.2-50.8-81.5-39c-18.5,6.5-33,21.1-39.3,39.7c-1.1-0.4-2.2-0.6-3.5-0.7H26.9c-4.7,0-5.5-1.7-5.5-5.1V172.7
					c0-4.4,2.5-9.2,5.5-9.2h339.3c6.4,0,9.6,3.2,17.1,12.3l5.9,9.1h-58.5c-5.9,0-10.7,4.8-10.7,10.7v117.3c0,5.9,4.8,10.7,10.7,10.7
					h147.8c3.5,4.7,12.2,18.8,12.2,29.4V425.1L490.7,425.1z"/>
				<path class="st0" d="M191.7,270.2H160v-31.7c0-5.3-3.8-10.1-9.1-10.9c-6.6-1-12.3,4.2-12.3,10.6v32H107
					c-5.3,0-10.1,3.8-10.9,9.1c-1,6.6,4.2,12.3,10.6,12.3h32v31.6c0,5.3,3.8,10.1,9.1,10.9c6.6,1,12.3-4.2,12.3-10.6v-32h32
					c6.4,0,11.5-5.7,10.6-12.3C201.8,274.1,197,270.2,191.7,270.2z"/>
			</g>
		</g>
	</g>
	<path class="st0" d="M267.7,70.2c9.5,0,17.3-7.7,17.3-17.3V17.3c0-9.5-7.7-17.3-17.3-17.3s-17.3,7.7-17.3,17.3V53
		C250.4,62.5,258.1,70.2,267.7,70.2z"/>
	<path class="st0" d="M205.9,81.7c6.7,6.7,17.7,6.7,24.4,0c6.7-6.7,6.7-17.7,0-24.4l-25.2-25.2c-6.7-6.7-17.7-6.7-24.4,0
		c-6.7,6.7-6.7,17.7,0,24.4L205.9,81.7z"/>
	<path class="st0" d="M331.4,79.8l25.2-25.2c6.7-6.7,6.7-17.7,0-24.4c-6.7-6.7-17.7-6.7-24.4,0L307,55.3c-6.7,6.7-6.7,17.7,0,24.4
		C313.7,86.5,324.7,86.5,331.4,79.8z"/>
	<path class="st0" d="M343.8,134.6h35.7c9.5,0,17.3-7.7,17.3-17.3c0-9.5-7.7-17.3-17.3-17.3l-35.7,0c-9.5,0-17.3,7.7-17.3,17.3
		C326.6,126.9,334.3,134.6,343.8,134.6z"/>
	<path class="st0" d="M153.8,138.1l35.7,0c9.5,0,17.3-7.7,17.3-17.3c0-9.5-7.7-17.3-17.3-17.3l-35.7,0c-9.5,0-17.3,7.7-17.3,17.3
		C136.5,130.3,144.2,138.1,153.8,138.1z"/>
</g>
</svg>
